<?xml version="1.0" encoding="UTF-8" standalone="no"?>
<svg width="106px" height="32px" viewBox="0 0 106 32" version="1.1" xmlns="http://www.w3.org/2000/svg" xmlns:xlink="http://www.w3.org/1999/xlink" xmlns:sketch="http://www.bohemiancoding.com/sketch/ns">
    <!-- Generator: Sketch 3.0.4 (8054) - http://www.bohemiancoding.com/sketch -->
    <title>Issue Backgrounder Icon</title>
    <desc>Created with Sketch.</desc>
    <defs></defs>
    <g id="Page-1" stroke="none" stroke-width="1" fill="none" fill-rule="evenodd" sketch:type="MSPage">
        <g id="Landscape" sketch:type="MSArtboardGroup" transform="translate(-457.000000, -91.000000)">
            <g id="Issue-Backgrounder" sketch:type="MSLayerGroup" transform="translate(423.000000, 91.000000)">
                <g id="Issue-Backgrounder-Icon" transform="translate(36.000000, 0.000000)" sketch:type="MSShapeGroup">
                    <path d="M10.7710989,18.5 L42.1117504,18.5 C42.8354758,13.6887369 46.9869626,10 52,10 C57.0130374,10 61.1645242,13.6887369 61.8882496,18.5 L61.8882496,18.5 L91.2289011,18.5 L91.2289011,18.5 C91.866033,16.4714465 93.7611791,15 96,15 C98.2388209,15 100.133967,16.4714465 100.771099,18.5 L101,18.5 L102.5,18.5 L102.5,21.5 L101,21.5 L100.771099,21.5 C100.133967,23.5285535 98.2388209,25 96,25 C93.7611791,25 91.866033,23.5285535 91.2289011,21.5 L61.8882496,21.5 C61.1645242,26.3112631 57.0130374,30 52,30 C46.9869626,30 42.8354758,26.3112631 42.1117504,21.5 L10.7710989,21.5 C10.133967,23.5285535 8.23882089,25 6,25 C3.76117911,25 1.86603296,23.5285535 1.22890114,21.5 L1,21.5 L-0.5,21.5 L-0.5,18.5 L1,18.5 L1.22890114,18.5 C1.86603296,16.4714465 3.76117911,15 6,15 C8.23882089,15 10.133967,16.4714465 10.7710989,18.5 L10.7710989,18.5 Z" id="Line" stroke="#E98300" stroke-width="3" stroke-linecap="square"></path>
                    <path d="M74,12 L66,12 L66,0 L84,0 L84,12 L77,12 L76,13 L74,15 L74,12 L74,12 Z" id="Rectangle-16" fill="#E98300"></path>
                </g>
            </g>
        </g>
    </g>
</svg>