<?xml version="1.0" encoding="UTF-8" standalone="no"?>
<svg width="37px" height="37px" viewBox="0 0 37 37" version="1.1" xmlns="http://www.w3.org/2000/svg" xmlns:xlink="http://www.w3.org/1999/xlink" xmlns:sketch="http://www.bohemiancoding.com/sketch/ns">
    <!-- Generator: Sketch 3.0.4 (8053) - http://www.bohemiancoding.com/sketch -->
    <title>Artboard 3</title>
    <desc>Created with Sketch.</desc>
    <defs></defs>
    <g id="Page-1" stroke="none" stroke-width="1" fill="none" fill-rule="evenodd" sketch:type="MSPage">
        <g id="Artboard-3" sketch:type="MSArtboardGroup" fill="#E98300">
            <g id="family4" sketch:type="MSLayerGroup" transform="translate(6.000000, 3.000000)">
                <path d="M6.77500481,14.563018 C5.7868995,14.563018 4.98637568,15.3463724 4.98637568,16.3171074 C4.98637568,17.2878423 5.7868995,18.0711967 6.77500481,18.0711967 C7.76046814,18.0711967 8.56099196,17.2878423 8.56099196,16.3171074 C8.56099196,15.3463724 7.76046814,14.563018 6.77500481,14.563018 L6.77500481,14.563018 Z M6.77500481,24.9079813 C6.77500481,24.9079813 7.57817063,30.4018726 7.57817063,30.4070776 C7.68913433,30.6777383 7.94540763,30.8703238 8.25716278,30.8703238 C8.57684392,30.8703238 8.84632718,30.6595207 8.94408092,30.373245 C8.9493649,30.35763 8.96785885,30.0323167 8.9493649,29.9802665 L8.6191158,23.2267621 L8.72479551,20.9079288 C8.81726526,20.1193694 8.83575921,20.3561975 9.74460474,19.8200811 C10.6772282,19.2709522 12.2544979,16.8558262 12.3311157,16.7387134 C12.4077335,16.6163956 12.5504011,16.4055926 12.579463,16.2702622 C12.6243769,16.0256266 12.4632153,15.7966061 12.220152,15.7471584 C12.0352125,15.7159284 11.8766929,15.8122211 11.7578033,15.9397439 C11.6362716,16.0698692 9.81593855,18.4563677 8.45267025,18.6853883 C8.14619909,18.6411457 7.81594998,18.4823928 6.94673435,18.4823928 L6.60327528,18.4823928 C5.73934363,18.4823928 5.40909453,18.6437482 5.09998137,18.6853883 C3.73407108,18.4563677 1.91373803,16.0698692 1.78692238,15.9397439 C1.67067469,15.8122211 1.5200811,15.7159284 1.32985762,15.7471584 C1.08679428,15.7966061 0.922990727,16.0256266 0.973188591,16.2702622 C0.999608519,16.4055926 1.14227613,16.6163956 1.22153592,16.7387134 C1.3007957,16.8558262 2.8833494,19.2709522 3.80804688,19.8200811 C4.7195344,20.3561975 4.74067035,20.1193694 4.82785611,20.9079288 L4.93089383,23.2267621 L4.60328672,29.9802665 C4.58479277,30.0349192 4.60328672,30.3602325 4.61649668,30.373245 C4.71160843,30.6595207 4.97580771,30.8703238 5.29813083,30.8703238 C5.604602,30.8703238 5.86880128,30.6777383 5.971839,30.4070776 C5.96919701,30.4018726 6.77500481,24.9079813 6.77500481,24.9079813 L6.77500481,24.9079813 Z" id="Shape" sketch:type="MSShapeGroup"></path>
                <g id="Shape-3-+-Shape-2" transform="translate(11.310345, -0.250000)" sketch:type="MSShapeGroup">
                    <path d="M9.48022989,5.21666667 C8.91977011,5.215625 3.22317241,5.215625 2.66165517,5.21666667 C0.959126437,5.22291667 0.0687356322,6.1 0.0634482759,7.76875 C0.0581609195,10.0958333 0.0380689655,16.3864583 0.0740229885,17.2052083 C0.102574713,17.875 0.591126437,18.3114583 1.22243678,18.3125 C1.8622069,18.3125 2.32537931,17.8833333 2.38354023,17.215625 C2.40151724,17.0125 2.38354023,12.4083333 2.40151724,10.3114583 C2.40151724,9.81979167 2.97466667,9.928125 2.97466667,10.3270833 C2.97466667,10.590625 2.98312644,23.2104167 2.98524138,29.425 C2.98524138,30.5197917 3.50234483,31.1583333 4.38533333,31.1770833 C5.32013793,31.1958333 5.84570115,30.5729167 5.84887356,29.4125 C5.85416092,27.784375 5.86262069,20.3239583 5.86473563,18.99375 C5.86473563,18.7197917 6.27503448,18.7177083 6.27503448,18.99375 C6.27609195,20.3239583 6.2856092,27.784375 6.29089655,29.4125 C6.29406897,30.5729167 6.81963218,31.1958333 7.75443678,31.1770833 C8.63742529,31.1583333 9.15452874,30.5197917 9.15452874,29.425 C9.15558621,23.2104167 9.16510345,10.590625 9.16510345,10.3270833 C9.16510345,9.928125 9.73825287,9.82083333 9.73825287,10.3114583 C9.75622989,12.4083333 9.73825287,17.0125 9.75622989,17.215625 C9.8143908,17.8833333 10.2775632,18.3125 10.9173333,18.3125 C11.5486437,18.3104167 12.0371954,17.8739583 12.0657471,17.2052083 C12.1027586,16.3875 12.0826667,10.096875 12.0763218,7.76875 C12.0731494,6.09895833 11.1827586,5.22291667 9.48022989,5.21666667 L9.48022989,5.21666667 Z" id="Shape-3"></path>
                    <path d="M8.39103448,1.96770833 C8.40055172,0.69375 7.37163218,-0.33125 6.08468966,-0.330208333 C4.79668966,-0.329166667 3.74344828,0.7 3.75190805,1.953125 C3.76036782,3.17916667 4.78505747,4.18854167 6.03287356,4.20208333 C7.35577011,4.21666667 8.38151724,3.24270833 8.39103448,1.96770833 L8.39103448,1.96770833 Z" id="Shape-2"></path>
                </g>
            </g>
        </g>
    </g>
</svg>