<?xml version="1.0" encoding="UTF-8" standalone="no"?>
<svg width="100px" height="68px" viewBox="0 0 100 68" version="1.1" xmlns="http://www.w3.org/2000/svg" xmlns:xlink="http://www.w3.org/1999/xlink" xmlns:sketch="http://www.bohemiancoding.com/sketch/ns">
    <!-- Generator: Sketch 3.0.4 (8054) - http://www.bohemiancoding.com/sketch -->
    <title>Rectangle 21</title>
    <desc>Created with Sketch.</desc>
    <defs></defs>
    <g id="Page-1" stroke="none" stroke-width="1" fill="none" fill-rule="evenodd" sketch:type="MSPage">
        <g id="Landscape" sketch:type="MSArtboardGroup" transform="translate(-660.000000, -76.000000)" fill="#E98300">
            <g id="Legislative-Analysis" sketch:type="MSLayerGroup" transform="translate(625.000000, 76.000000)">
                <path d="M44,24 L44,27 L126,27 L126,24 L44,24 L44,24 Z M44,20 L44,23 L126,23 L126,20 L44,20 L44,20 Z M44,16 L44,19 L126,19 L126,16 L44,16 L44,16 Z M35,8 L35,15 L135,15 L135,8 L35,8 L35,8 Z M44,0 L44,7 L126,7 L126,0 L44,0 L44,0 Z M44,61 L44,64 L126,64 L126,61 L44,61 L44,61 Z M42,64 L42,68 L128,68 L128,64 L42,64 L42,64 Z M44,28 L44,59 L54,59 L54,28 L44,28 L44,28 Z M62,28 L62,59 L72,59 L72,28 L62,28 L62,28 Z M80,28 L80,59 L90,59 L90,28 L80,28 L80,28 Z M98,28 L98,59 L108,59 L108,28 L98,28 L98,28 Z M116,28 L116,59 L126,59 L126,28 L116,28 L116,28 Z" id="Rectangle-21" sketch:type="MSShapeGroup"></path>
            </g>
        </g>
    </g>
</svg>