<?xml version="1.0" encoding="UTF-8" standalone="no"?>
<svg width="38px" height="37px" viewBox="0 0 38 37" version="1.1" xmlns="http://www.w3.org/2000/svg" xmlns:xlink="http://www.w3.org/1999/xlink" xmlns:sketch="http://www.bohemiancoding.com/sketch/ns">
    <!-- Generator: Sketch 3.0.4 (8053) - http://www.bohemiancoding.com/sketch -->
    <title>Artboard 1</title>
    <desc>Created with Sketch.</desc>
    <defs></defs>
    <g id="Page-1" stroke="none" stroke-width="1" fill="none" fill-rule="evenodd" sketch:type="MSPage">
        <g id="Artboard-1" sketch:type="MSArtboardGroup">
            <g id="banknote" sketch:type="MSLayerGroup" transform="translate(5.763371, 8.000000)" fill="#E98300">
                <g transform="translate(-0.000000, 0.000000)" id="Shape" sketch:type="MSShapeGroup">
                    <path d="M25.7196006,8.6668054 L17.532556,0.479760813 C17.1264786,0.0736834013 16.5378301,-0.089238786 15.9802923,0.048303563 C15.6863774,0.120349555 15.4235733,0.27180988 15.2156224,0.479760813 C15.0297764,0.665606725 14.889778,0.895662677 14.8095449,1.15273588 C14.4386718,2.35541273 13.7976262,3.40089832 12.8487478,4.34895808 C11.5813933,5.61549388 9.93088508,6.57501551 8.18458847,7.58939033 C6.33104158,8.66353058 4.41609185,9.77696864 2.8466354,11.3456064 C1.51296584,12.6809134 0.605022595,14.1660432 0.0728646968,15.8902348 C-0.10643158,16.4723337 0.049940972,17.1019174 0.478942108,17.532556 L8.66598669,25.7196006 C9.0720641,26.125678 9.66071261,26.2886002 10.2182503,26.1510578 C10.5121652,26.0773744 10.7749694,25.9275515 10.9829203,25.7196006 C11.1687662,25.5337546 11.3087647,25.3036987 11.3889977,25.0449881 C11.7606895,23.8423112 12.4017351,22.7968256 13.3514323,21.8487659 C14.6179681,20.5822301 16.2676576,19.6243459 18.0155916,18.6107897 C19.8675011,17.5350121 21.7832695,16.421574 23.3519073,14.8529363 C24.6855768,13.5192667 25.5935201,12.0324994 26.1264967,10.3083078 C26.3049742,9.72702767 26.147783,9.09498783 25.7196006,8.6668054 L25.7196006,8.6668054 Z M9.8244535,24.5611338 C7.11290433,21.8495846 4.34895808,19.0848196 1.63740892,16.3740892 C3.96416699,8.84118945 14.0489685,9.17030864 16.3740892,1.63740892 C19.0856383,4.34813938 21.8504033,7.11290433 24.5627712,9.8244535 C22.2351944,17.3557158 12.1503929,17.028234 9.8244535,24.5611338 L9.8244535,24.5611338 Z"></path>
                    <path d="M16.0154966,12.1986964 C15.748599,11.9751901 15.4800639,11.8229111 15.2098914,11.7475903 C14.9413564,11.6722695 14.6728213,11.6419774 14.4010114,11.6616263 C14.1324764,11.6820939 13.8573917,11.7434968 13.582307,11.8491096 C13.3072223,11.9563599 13.0305002,12.0726159 12.7521406,12.2077022 C12.3124963,11.7025615 11.8728521,11.2031518 11.4332078,10.7397651 C11.6313342,10.5604688 11.8237298,10.4695926 12.008757,10.463043 C12.1946029,10.4548559 12.3730805,10.4745048 12.5425523,10.5170775 C12.7152989,10.5604688 12.8733089,10.5973105 13.0190383,10.6259652 C13.1664051,10.6546198 13.294123,10.6226903 13.4062855,10.5285393 C13.5249977,10.4262013 13.590494,10.2935712 13.5994998,10.1339238 C13.6076868,9.97263901 13.5471027,9.81544775 13.4120164,9.66235002 C13.2392698,9.46422354 13.0313189,9.34387398 12.781614,9.29966394 C12.535184,9.25627261 12.283023,9.25954742 12.0202189,9.31685674 C11.7615082,9.37580346 11.5150782,9.47322929 11.2817474,9.61077164 C11.0484167,9.74831399 10.8609333,9.88913115 10.7217536,10.0266735 C10.6685378,9.97591383 10.615322,9.92597285 10.5621062,9.87603188 C10.5031595,9.82199739 10.4294761,9.79252403 10.341056,9.79416144 C10.2518172,9.79416144 10.1781338,9.83264055 10.1175497,9.90304913 C10.058603,9.9718203 10.0315857,10.0520533 10.0422289,10.1363799 C10.0504159,10.2239813 10.0856202,10.291115 10.1462044,10.3426934 C10.1994201,10.3877222 10.2526359,10.4319322 10.3058517,10.4785984 C10.0962634,10.731578 9.92351674,11.0107563 9.7876118,11.3054899 C9.65006945,11.6010422 9.56819901,11.8941384 9.53790694,12.1782288 C9.50597747,12.4647754 9.53626953,12.7267608 9.62387091,12.969916 C9.71147229,13.2147087 9.87357577,13.4226596 10.1101814,13.6191487 C10.4957912,13.9392621 10.9493534,14.075167 11.4757804,14.044875 C12.00057,14.0129455 12.5662947,13.856573 13.1745921,13.5299099 C13.6576278,14.0882663 14.1423008,14.6425292 14.6261551,15.1574943 C14.421479,15.330241 14.2421828,15.4293042 14.0841728,15.4612337 C13.9261628,15.4948006 13.7853457,15.4915258 13.6576278,15.4530467 C13.5299099,15.4129301 13.4111977,15.3556208 13.30231,15.2819374 C13.1934223,15.2066166 13.0861721,15.1427577 12.9789218,15.0903606 C12.8733089,15.0379635 12.7644212,15.0084901 12.6530774,15.0068527 C12.5417336,15.0052153 12.4230215,15.0592498 12.2920287,15.1714123 C12.1577612,15.2884871 12.0906274,15.424392 12.0906274,15.5774897 C12.0906274,15.7297688 12.161036,15.8845039 12.2985784,16.0408765 C12.4377581,16.197249 12.6186918,16.3290604 12.8372859,16.4330359 C13.05588,16.5370114 13.3031287,16.6025077 13.5749386,16.6205192 C13.8467485,16.6393494 14.1332951,16.5984142 14.435397,16.4862517 C14.7391364,16.3757266 15.0396009,16.1759627 15.3359719,15.878773 C15.4784265,16.0179527 15.6225185,16.1505829 15.7657918,16.2783007 C15.8263759,16.3306978 15.9000593,16.3568964 15.9892981,16.3503467 C16.075262,16.3470719 16.1505829,16.3069554 16.2103483,16.2349094 C16.2709324,16.161226 16.2963122,16.0801743 16.2873065,15.995029 C16.2791195,15.909065 16.2439152,15.84275 16.1849684,15.7952651 C16.0408765,15.6798278 15.8967845,15.5586595 15.7535112,15.4309416 C15.9983038,15.1304771 16.1947929,14.8136385 16.3405223,14.5000747 C16.4862517,14.1848734 16.5722156,13.8811341 16.6008703,13.5994998 C16.629525,13.316228 16.5959581,13.0607922 16.5034445,12.8290989 C16.4117496,12.5941307 16.2488274,12.3927294 16.0154966,12.1986964 L16.0154966,12.1986964 Z M11.43812,12.7537781 C11.2064266,12.7636025 11.0042066,12.6866443 10.8273665,12.5155351 C10.7520457,12.4434891 10.6996486,12.3558877 10.6677191,12.2519122 C10.6341522,12.1479368 10.6226903,12.0341368 10.6357896,11.9096938 C10.6472515,11.7868881 10.6840932,11.6583515 10.7479521,11.5289962 C10.8085363,11.3996409 10.8985937,11.2702856 11.0132124,11.1450238 C11.4282955,11.5576508 11.84256,12.0103944 12.2576432,12.4786934 C11.9432606,12.65144 11.6698133,12.7439536 11.43812,12.7537781 L11.43812,12.7537781 Z M15.2999489,14.3928244 C15.2262655,14.5287293 15.141939,14.6498976 15.0428757,14.7555105 C14.5835825,14.2921237 14.125108,13.7828896 13.6674522,13.2605561 C13.784527,13.208159 13.9073326,13.1533058 14.0399628,13.0976339 C14.1725929,13.041962 14.305223,13.0051203 14.4378531,12.9821966 C14.5737581,12.961729 14.7080256,12.9674599 14.8422931,12.9993894 C14.9749232,13.0329563 15.1010037,13.1050023 15.2180785,13.2188022 C15.3335158,13.3342395 15.4063805,13.4537704 15.4358539,13.5831257 C15.4677833,13.7141184 15.4694207,13.8467485 15.4473157,13.9826534 C15.4235733,14.1193771 15.3752697,14.255282 15.2999489,14.3928244 L15.2999489,14.3928244 Z"></path>
                    <path d="M12.0488735,18.1588649 L12.0472361,18.1588649 C11.5355458,18.551843 11.0361361,18.9661075 10.5735681,19.4303129 C10.1290116,19.8748694 9.72702767,20.3431684 9.37744087,20.8212918 L8.81744702,21.5859617 L8.81908443,21.5875992 C8.71674637,21.7472465 8.73393916,21.9617471 8.87311892,22.1009269 C9.03276629,22.2605742 9.29393301,22.2605742 9.45439909,22.1009269 C9.47896022,22.075547 9.49860913,22.0485298 9.51498322,22.0190564 L10.0381354,21.30269 C10.3623423,20.8597709 10.737309,20.4234014 11.1523921,20.009137 C11.6116853,19.5498438 12.0374117,19.1953447 12.5556516,18.8015479 L12.5540142,18.7999105 C12.5687508,18.7884486 12.5826688,18.7794429 12.5957681,18.7663436 C12.7562342,18.6066962 12.7562342,18.3455295 12.5957681,18.1858821 C12.4475826,18.0352405 12.2101583,18.0286909 12.0488735,18.1588649 L12.0488735,18.1588649 Z"></path>
                    <path d="M15.0461505,6.3163049 C14.6179681,6.74448733 14.1537627,7.13009713 13.6723645,7.49769543 C13.6387976,7.51652563 13.6052307,7.53781195 13.576576,7.56810401 C13.4152913,7.72938879 13.4152913,7.99219292 13.576576,8.1534777 C13.7329486,8.31148766 13.9859283,8.31476248 14.1488504,8.16493956 L14.1521253,8.16657697 C14.6638156,7.77359883 15.1624066,7.35769697 15.6249746,6.89512895 C16.0695311,6.45057243 16.4706963,5.98391089 16.8211018,5.50578748 L17.3810957,4.7378427 L17.3794582,4.73620529 C17.518638,4.5732831 17.5120884,4.33012788 17.3589906,4.17621144 C17.1977059,4.01492666 16.9365391,4.01492666 16.7752544,4.17621144 C16.7449623,4.20650351 16.7228573,4.2417078 16.7032084,4.27691209 L16.1595886,5.02193315 C15.8345629,5.46730837 15.460415,5.90204044 15.0461505,6.3163049 L15.0461505,6.3163049 Z"></path>
                </g>
            </g>
            <path d="M8.57568359,15.9833984 C6.35164874,18.3854312 5.74755859,20.6064453 5.74755859,20.6064453 L14.9541016,29.659668 C14.9541016,29.659668 15.4072266,24.3364258 23.3100586,21.2050781 C31.2128906,18.0737305 30.2451172,13.0825195 30.2451172,13.0825195 L21.6694336,4.83740234 C21.6694336,4.83740234 17.8790121,10.8823242 13.7929687,12.2832031 C12.3108745,12.7913315 9.84154145,14.6162292 8.57568359,15.9833984 Z" id="Path-35" fill="#FFFFFF" sketch:type="MSShapeGroup"></path>
            <g id="banknote-2" sketch:type="MSLayerGroup" transform="translate(5.000000, 4.000000)" fill="#E98300">
                <g id="banknote" transform="translate(0.000000, 0.000000)" sketch:type="MSShapeGroup">
                    <path d="M25.7196006,8.6668054 L17.532556,0.479760813 C17.1264786,0.0736834013 16.5378301,-0.089238786 15.9802923,0.048303563 C15.6863774,0.120349555 15.4235733,0.27180988 15.2156224,0.479760813 C15.0297764,0.665606725 14.889778,0.895662677 14.8095449,1.15273588 C14.4386718,2.35541273 13.7976262,3.40089832 12.8487478,4.34895808 C11.5813933,5.61549388 9.93088508,6.57501551 8.18458847,7.58939033 C6.33104158,8.66353058 4.41609185,9.77696864 2.8466354,11.3456064 C1.51296584,12.6809134 0.605022595,14.1660432 0.0728646968,15.8902348 C-0.10643158,16.4723337 0.049940972,17.1019174 0.478942108,17.532556 L8.66598669,25.7196006 C9.0720641,26.125678 9.66071261,26.2886002 10.2182503,26.1510578 C10.5121652,26.0773744 10.7749694,25.9275515 10.9829203,25.7196006 C11.1687662,25.5337546 11.3087647,25.3036987 11.3889977,25.0449881 C11.7606895,23.8423112 12.4017351,22.7968256 13.3514323,21.8487659 C14.6179681,20.5822301 16.2676576,19.6243459 18.0155916,18.6107897 C19.8675011,17.5350121 21.7832695,16.421574 23.3519073,14.8529363 C24.6855768,13.5192667 25.5935201,12.0324994 26.1264967,10.3083078 C26.3049742,9.72702767 26.147783,9.09498783 25.7196006,8.6668054 L25.7196006,8.6668054 Z M9.8244535,24.5611338 C7.11290433,21.8495846 4.34895808,19.0848196 1.63740892,16.3740892 C3.96416699,8.84118945 14.0489685,9.17030864 16.3740892,1.63740892 C19.0856383,4.34813938 21.8504033,7.11290433 24.5627712,9.8244535 C22.2351944,17.3557158 12.1503929,17.028234 9.8244535,24.5611338 L9.8244535,24.5611338 Z" id="Shape"></path>
                    <path d="M16.0154966,12.1986964 C15.748599,11.9751901 15.4800639,11.8229111 15.2098914,11.7475903 C14.9413564,11.6722695 14.6728213,11.6419774 14.4010114,11.6616263 C14.1324764,11.6820939 13.8573917,11.7434968 13.582307,11.8491096 C13.3072223,11.9563599 13.0305002,12.0726159 12.7521406,12.2077022 C12.3124963,11.7025615 11.8728521,11.2031518 11.4332078,10.7397651 C11.6313342,10.5604688 11.8237298,10.4695926 12.008757,10.463043 C12.1946029,10.4548559 12.3730805,10.4745048 12.5425523,10.5170775 C12.7152989,10.5604688 12.8733089,10.5973105 13.0190383,10.6259652 C13.1664051,10.6546198 13.294123,10.6226903 13.4062855,10.5285393 C13.5249977,10.4262013 13.590494,10.2935712 13.5994998,10.1339238 C13.6076868,9.97263901 13.5471027,9.81544775 13.4120164,9.66235002 C13.2392698,9.46422354 13.0313189,9.34387398 12.781614,9.29966394 C12.535184,9.25627261 12.283023,9.25954742 12.0202189,9.31685674 C11.7615082,9.37580346 11.5150782,9.47322929 11.2817474,9.61077164 C11.0484167,9.74831399 10.8609333,9.88913115 10.7217536,10.0266735 C10.6685378,9.97591383 10.615322,9.92597285 10.5621062,9.87603188 C10.5031595,9.82199739 10.4294761,9.79252403 10.341056,9.79416144 C10.2518172,9.79416144 10.1781338,9.83264055 10.1175497,9.90304913 C10.058603,9.9718203 10.0315857,10.0520533 10.0422289,10.1363799 C10.0504159,10.2239813 10.0856202,10.291115 10.1462044,10.3426934 C10.1994201,10.3877222 10.2526359,10.4319322 10.3058517,10.4785984 C10.0962634,10.731578 9.92351674,11.0107563 9.7876118,11.3054899 C9.65006945,11.6010422 9.56819901,11.8941384 9.53790694,12.1782288 C9.50597747,12.4647754 9.53626953,12.7267608 9.62387091,12.969916 C9.71147229,13.2147087 9.87357577,13.4226596 10.1101814,13.6191487 C10.4957912,13.9392621 10.9493534,14.075167 11.4757804,14.044875 C12.00057,14.0129455 12.5662947,13.856573 13.1745921,13.5299099 C13.6576278,14.0882663 14.1423008,14.6425292 14.6261551,15.1574943 C14.421479,15.330241 14.2421828,15.4293042 14.0841728,15.4612337 C13.9261628,15.4948006 13.7853457,15.4915258 13.6576278,15.4530467 C13.5299099,15.4129301 13.4111977,15.3556208 13.30231,15.2819374 C13.1934223,15.2066166 13.0861721,15.1427577 12.9789218,15.0903606 C12.8733089,15.0379635 12.7644212,15.0084901 12.6530774,15.0068527 C12.5417336,15.0052153 12.4230215,15.0592498 12.2920287,15.1714123 C12.1577612,15.2884871 12.0906274,15.424392 12.0906274,15.5774897 C12.0906274,15.7297688 12.161036,15.8845039 12.2985784,16.0408765 C12.4377581,16.197249 12.6186918,16.3290604 12.8372859,16.4330359 C13.05588,16.5370114 13.3031287,16.6025077 13.5749386,16.6205192 C13.8467485,16.6393494 14.1332951,16.5984142 14.435397,16.4862517 C14.7391364,16.3757266 15.0396009,16.1759627 15.3359719,15.878773 C15.4784265,16.0179527 15.6225185,16.1505829 15.7657918,16.2783007 C15.8263759,16.3306978 15.9000593,16.3568964 15.9892981,16.3503467 C16.075262,16.3470719 16.1505829,16.3069554 16.2103483,16.2349094 C16.2709324,16.161226 16.2963122,16.0801743 16.2873065,15.995029 C16.2791195,15.909065 16.2439152,15.84275 16.1849684,15.7952651 C16.0408765,15.6798278 15.8967845,15.5586595 15.7535112,15.4309416 C15.9983038,15.1304771 16.1947929,14.8136385 16.3405223,14.5000747 C16.4862517,14.1848734 16.5722156,13.8811341 16.6008703,13.5994998 C16.629525,13.316228 16.5959581,13.0607922 16.5034445,12.8290989 C16.4117496,12.5941307 16.2488274,12.3927294 16.0154966,12.1986964 L16.0154966,12.1986964 Z M11.43812,12.7537781 C11.2064266,12.7636025 11.0042066,12.6866443 10.8273665,12.5155351 C10.7520457,12.4434891 10.6996486,12.3558877 10.6677191,12.2519122 C10.6341522,12.1479368 10.6226903,12.0341368 10.6357896,11.9096938 C10.6472515,11.7868881 10.6840932,11.6583515 10.7479521,11.5289962 C10.8085363,11.3996409 10.8985937,11.2702856 11.0132124,11.1450238 C11.4282955,11.5576508 11.84256,12.0103944 12.2576432,12.4786934 C11.9432606,12.65144 11.6698133,12.7439536 11.43812,12.7537781 L11.43812,12.7537781 Z M15.2999489,14.3928244 C15.2262655,14.5287293 15.141939,14.6498976 15.0428757,14.7555105 C14.5835825,14.2921237 14.125108,13.7828896 13.6674522,13.2605561 C13.784527,13.208159 13.9073326,13.1533058 14.0399628,13.0976339 C14.1725929,13.041962 14.305223,13.0051203 14.4378531,12.9821966 C14.5737581,12.961729 14.7080256,12.9674599 14.8422931,12.9993894 C14.9749232,13.0329563 15.1010037,13.1050023 15.2180785,13.2188022 C15.3335158,13.3342395 15.4063805,13.4537704 15.4358539,13.5831257 C15.4677833,13.7141184 15.4694207,13.8467485 15.4473157,13.9826534 C15.4235733,14.1193771 15.3752697,14.255282 15.2999489,14.3928244 L15.2999489,14.3928244 Z" id="Shape"></path>
                    <path d="M12.0488735,18.1588649 L12.0472361,18.1588649 C11.5355458,18.551843 11.0361361,18.9661075 10.5735681,19.4303129 C10.1290116,19.8748694 9.72702767,20.3431684 9.37744087,20.8212918 L8.81744702,21.5859617 L8.81908443,21.5875992 C8.71674637,21.7472465 8.73393916,21.9617471 8.87311892,22.1009269 C9.03276629,22.2605742 9.29393301,22.2605742 9.45439909,22.1009269 C9.47896022,22.075547 9.49860913,22.0485298 9.51498322,22.0190564 L10.0381354,21.30269 C10.3623423,20.8597709 10.737309,20.4234014 11.1523921,20.009137 C11.6116853,19.5498438 12.0374117,19.1953447 12.5556516,18.8015479 L12.5540142,18.7999105 C12.5687508,18.7884486 12.5826688,18.7794429 12.5957681,18.7663436 C12.7562342,18.6066962 12.7562342,18.3455295 12.5957681,18.1858821 C12.4475826,18.0352405 12.2101583,18.0286909 12.0488735,18.1588649 L12.0488735,18.1588649 Z" id="Shape"></path>
                    <path d="M15.0461505,6.3163049 C14.6179681,6.74448733 14.1537627,7.13009713 13.6723645,7.49769543 C13.6387976,7.51652563 13.6052307,7.53781195 13.576576,7.56810401 C13.4152913,7.72938879 13.4152913,7.99219292 13.576576,8.1534777 C13.7329486,8.31148766 13.9859283,8.31476248 14.1488504,8.16493956 L14.1521253,8.16657697 C14.6638156,7.77359883 15.1624066,7.35769697 15.6249746,6.89512895 C16.0695311,6.45057243 16.4706963,5.98391089 16.8211018,5.50578748 L17.3810957,4.7378427 L17.3794582,4.73620529 C17.518638,4.5732831 17.5120884,4.33012788 17.3589906,4.17621144 C17.1977059,4.01492666 16.9365391,4.01492666 16.7752544,4.17621144 C16.7449623,4.20650351 16.7228573,4.2417078 16.7032084,4.27691209 L16.1595886,5.02193315 C15.8345629,5.46730837 15.460415,5.90204044 15.0461505,6.3163049 L15.0461505,6.3163049 Z" id="Shape"></path>
                </g>
            </g>
        </g>
    </g>
</svg>