<?xml version="1.0" encoding="UTF-8" standalone="no"?>
<svg width="37px" height="37px" viewBox="0 0 37 37" version="1.1" xmlns="http://www.w3.org/2000/svg" xmlns:xlink="http://www.w3.org/1999/xlink" xmlns:sketch="http://www.bohemiancoding.com/sketch/ns">
    <!-- Generator: Sketch 3.0.4 (8053) - http://www.bohemiancoding.com/sketch -->
    <title>Artboard 2</title>
    <desc>Created with Sketch.</desc>
    <defs></defs>
    <g id="Page-1" stroke="none" stroke-width="1" fill="none" fill-rule="evenodd" sketch:type="MSPage">
        <g id="Artboard-2" sketch:type="MSArtboardGroup" fill="#E98300">
            <g id="8" sketch:type="MSLayerGroup" transform="translate(3.000000, 3.000000)">
                <g id="Group" sketch:type="MSShapeGroup">
                    <path d="M4.4825,2.6625 C4.2175,2.662 1.524,2.662 1.2585,2.6625 C0.4535,2.6655 0.0325,3.0865 0.03,3.888 C0.0275,5.005 0.018,8.0245 0.035,8.417 C0.0485,8.7385 0.2795,8.948 0.578,8.9485 C0.8805,8.949 1.0995,8.7425 1.127,8.4225 C1.1355,8.325 1.127,6.115 1.1355,5.1085 C1.1355,4.873 1.4065,4.9245 1.4065,5.116 C1.4065,5.2425 1.4105,11.3 1.4115,14.283 C1.4115,14.8085 1.656,15.1155 2.0735,15.124 C2.5155,15.133 2.764,14.8335 2.7655,14.277 C2.768,13.4955 2.772,9.914 2.773,9.2755 C2.773,9.144 2.967,9.1435 2.967,9.2755 C2.9675,9.914 2.972,13.495 2.9745,14.277 C2.976,14.8335 3.2245,15.1325 3.6665,15.124 C4.084,15.1155 4.3285,14.8085 4.3285,14.283 C4.329,11.3 4.3335,5.2425 4.3335,5.116 C4.3335,4.9245 4.6045,4.873 4.6045,5.1085 C4.613,6.115 4.6045,8.325 4.613,8.4225 C4.6405,8.7425 4.8595,8.9495 5.162,8.9485 C5.4605,8.948 5.6915,8.7385 5.705,8.417 C5.7225,8.0245 5.713,5.005 5.71,3.888 C5.7085,3.0865 5.2875,2.6655 4.4825,2.6625 L4.4825,2.6625 Z" id="Shape"></path>
                    <path d="M2.8525,2.1755 C3.478,2.1825 3.9635,1.7155 3.9675,1.103 C3.972,0.4915 3.4855,-0.0005 2.877,0 C2.268,0.0005 1.77,0.495 1.774,1.096 C1.778,1.6845 2.262,2.1685 2.8525,2.1755 L2.8525,2.1755 Z" id="Shape"></path>
                    <path d="M12.5685,2.6625 C12.303,2.662 9.61,2.662 9.3445,2.6625 C8.54,2.6655 8.1185,3.0865 8.1165,3.888 C8.114,5.005 8.1045,8.0245 8.1215,8.417 C8.1355,8.7385 8.366,8.948 8.6645,8.9485 C8.967,8.949 9.186,8.7425 9.2135,8.4225 C9.222,8.325 9.2135,6.115 9.222,5.1085 C9.222,4.873 9.493,4.9245 9.493,5.116 C9.493,5.2425 9.4975,11.3 9.498,14.283 C9.498,14.8085 9.7425,15.1155 10.16,15.124 C10.602,15.133 10.8505,14.8335 10.8525,14.277 C10.855,13.4955 10.859,9.914 10.86,9.2755 C10.86,9.144 11.054,9.1435 11.054,9.2755 C11.0545,9.914 11.059,13.495 11.061,14.277 C11.0625,14.8335 11.311,15.1325 11.7535,15.124 C12.171,15.1155 12.4155,14.8085 12.4155,14.283 C12.416,11.3 12.4205,5.2425 12.4205,5.116 C12.4205,4.9245 12.6915,4.873 12.6915,5.1085 C12.7,6.115 12.6915,8.325 12.7,8.4225 C12.7275,8.7425 12.946,8.9495 13.249,8.9485 C13.5475,8.948 13.7785,8.7385 13.792,8.417 C13.809,8.0245 13.8,5.005 13.797,3.888 C13.7945,3.0865 13.3735,2.6655 12.5685,2.6625 L12.5685,2.6625 Z" id="Shape"></path>
                    <path d="M10.938,2.1755 C11.563,2.1825 12.049,1.7155 12.053,1.103 C12.058,0.4915 11.571,-0.0005 10.963,0 C10.3535,0.0005 9.856,0.495 9.86,1.096 C9.8635,1.6845 10.348,2.1685 10.938,2.1755 L10.938,2.1755 Z" id="Shape"></path>
                    <path d="M20.654,2.6625 C20.389,2.662 17.696,2.662 17.4305,2.6625 C16.6265,2.6655 16.2055,3.0865 16.2025,3.888 C16.1995,5.005 16.191,8.0245 16.208,8.417 C16.221,8.7385 16.4525,8.948 16.751,8.9485 C17.0535,8.949 17.2725,8.7425 17.3,8.4225 C17.309,8.325 17.3,6.115 17.309,5.1085 C17.309,4.873 17.58,4.9245 17.58,5.116 C17.58,5.2425 17.5845,11.3 17.5845,14.283 C17.5845,14.8085 17.829,15.1155 18.247,15.124 C18.6885,15.133 18.9375,14.8335 18.9385,14.277 C18.942,13.4955 18.945,9.914 18.9465,9.2755 C18.9465,9.144 19.141,9.1435 19.141,9.2755 C19.142,9.914 19.145,13.495 19.1485,14.277 C19.1495,14.8335 19.399,15.1325 19.8405,15.124 C20.258,15.1155 20.503,14.8085 20.503,14.283 C20.503,11.3 20.5075,5.2425 20.5075,5.116 C20.5075,4.9245 20.779,4.873 20.779,5.1085 C20.787,6.115 20.779,8.325 20.787,8.4225 C20.815,8.7425 21.034,8.9495 21.336,8.9485 C21.6345,8.948 21.8655,8.7385 21.8795,8.417 C21.8965,8.0245 21.887,5.005 21.885,3.888 C21.8805,3.0865 21.4595,2.6655 20.654,2.6625 L20.654,2.6625 Z" id="Shape"></path>
                    <path d="M19.0235,2.1755 C19.65,2.1825 20.1355,1.7155 20.1395,1.103 C20.1435,0.4915 19.657,-0.0005 19.0485,0 C18.44,0.0005 17.942,0.495 17.9455,1.096 C17.949,1.6845 18.4335,2.1685 19.0235,2.1755 L19.0235,2.1755 Z" id="Shape"></path>
                    <path d="M24.8365,8.948 C25.139,8.9485 25.3585,8.742 25.3855,8.422 C25.394,8.3245 25.3855,6.1145 25.394,5.108 C25.394,4.8725 25.666,4.924 25.666,5.1155 C25.666,5.242 25.6705,11.2995 25.6705,14.2825 C25.6705,14.808 25.915,15.115 26.333,15.1235 C26.7745,15.1325 27.0235,14.833 27.025,14.2765 C27.027,13.495 27.0315,9.9135 27.0325,9.275 C27.0325,9.1435 27.227,9.143 27.227,9.275 C27.227,9.9135 27.2315,13.4945 27.2335,14.2765 C27.236,14.833 27.484,15.132 27.9265,15.1235 C28.3445,15.115 28.588,14.808 28.588,14.2825 C28.589,11.2995 28.5935,5.242 28.5935,5.1155 C28.5935,4.924 28.8645,4.8725 28.8645,5.108 C28.873,6.1145 28.8645,8.3245 28.873,8.422 C28.901,8.742 29.119,8.949 29.422,8.948 C29.721,8.9475 29.952,8.738 29.9655,8.4165 C29.9825,8.024 29.9735,5.0045 29.971,3.8875 C29.968,3.086 29.5465,2.665 28.7425,2.662 C28.477,2.6615 25.7835,2.6615 25.518,2.662 C24.714,2.665 24.2925,3.086 24.2905,3.8875 C24.287,5.0045 24.279,8.024 24.296,8.4165 C24.3065,8.7385 24.5375,8.948 24.8365,8.948 L24.8365,8.948 Z" id="Shape"></path>
                    <path d="M27.1105,2.1755 C27.7355,2.1825 28.221,1.7155 28.225,1.103 C28.2305,0.4915 27.7425,-0.0005 27.135,0 C26.526,0.0005 26.0275,0.495 26.032,1.096 C26.036,1.6845 26.5205,2.1685 27.1105,2.1755 L27.1105,2.1755 Z" id="Shape"></path>
                    <path d="M4.4825,19.504 C4.2175,19.5035 1.524,19.5035 1.2585,19.504 C0.4535,19.507 0.0325,19.928 0.03,20.729 C0.0275,21.846 0.018,24.8655 0.035,25.2585 C0.0485,25.58 0.2795,25.7895 0.578,25.79 C0.8805,25.79 1.0995,25.584 1.127,25.2635 C1.1355,25.166 1.127,22.956 1.1355,21.9495 C1.1355,21.7135 1.4065,21.7655 1.4065,21.957 C1.4065,22.0835 1.4105,28.141 1.4115,31.124 C1.4115,31.6495 1.656,31.956 2.0735,31.965 C2.5155,31.974 2.764,31.675 2.7655,31.118 C2.768,30.3365 2.772,26.7555 2.773,26.117 C2.773,25.9855 2.967,25.9845 2.967,26.117 C2.9675,26.7555 2.972,30.3365 2.9745,31.118 C2.976,31.675 3.2245,31.974 3.6665,31.965 C4.084,31.956 4.3285,31.6495 4.3285,31.124 C4.329,28.141 4.3335,22.0835 4.3335,21.957 C4.3335,21.7655 4.6045,21.714 4.6045,21.9495 C4.613,22.956 4.6045,25.166 4.613,25.2635 C4.6405,25.584 4.8595,25.79 5.162,25.79 C5.4605,25.789 5.6915,25.5795 5.705,25.2585 C5.7225,24.866 5.713,21.8465 5.71,20.729 C5.7085,19.9275 5.2875,19.507 4.4825,19.504 L4.4825,19.504 Z" id="Shape"></path>
                    <path d="M3.9675,17.9445 C3.972,17.333 3.4855,16.841 2.877,16.8415 C2.268,16.842 1.77,17.336 1.774,17.9375 C1.778,18.526 2.2625,19.0105 2.8525,19.017 C3.478,19.024 3.963,18.5565 3.9675,17.9445 L3.9675,17.9445 Z" id="Shape"></path>
                    <path d="M12.5685,19.504 C12.303,19.5035 9.61,19.5035 9.3445,19.504 C8.54,19.507 8.1185,19.928 8.1165,20.729 C8.114,21.846 8.1045,24.8655 8.1215,25.2585 C8.1355,25.58 8.366,25.7895 8.6645,25.79 C8.967,25.79 9.186,25.584 9.2135,25.2635 C9.222,25.166 9.2135,22.956 9.222,21.9495 C9.222,21.7135 9.493,21.7655 9.493,21.957 C9.493,22.0835 9.4975,28.141 9.498,31.124 C9.498,31.6495 9.7425,31.956 10.16,31.965 C10.602,31.974 10.8505,31.675 10.8525,31.118 C10.855,30.3365 10.859,26.7555 10.86,26.117 C10.86,25.9855 11.054,25.9845 11.054,26.117 C11.0545,26.7555 11.059,30.3365 11.061,31.118 C11.0625,31.675 11.311,31.974 11.7535,31.965 C12.171,31.956 12.4155,31.6495 12.4155,31.124 C12.416,28.141 12.4205,22.0835 12.4205,21.957 C12.4205,21.7655 12.6915,21.714 12.6915,21.9495 C12.7,22.956 12.6915,25.166 12.7,25.2635 C12.7275,25.584 12.946,25.79 13.249,25.79 C13.5475,25.789 13.7785,25.5795 13.792,25.2585 C13.809,24.866 13.8,21.8465 13.797,20.729 C13.7945,19.9275 13.3735,19.507 12.5685,19.504 L12.5685,19.504 Z" id="Shape"></path>
                    <path d="M12.053,17.9445 C12.0575,17.333 11.571,16.841 10.9625,16.8415 C10.353,16.842 9.8555,17.336 9.8595,17.9375 C9.863,18.526 10.3475,19.0105 10.938,19.017 C11.5635,19.024 12.049,18.5565 12.053,17.9445 L12.053,17.9445 Z" id="Shape"></path>
                    <path d="M20.654,19.504 C20.389,19.5035 17.696,19.5035 17.4305,19.504 C16.6265,19.507 16.2055,19.928 16.2025,20.729 C16.1995,21.846 16.191,24.8655 16.208,25.2585 C16.221,25.58 16.4525,25.7895 16.751,25.79 C17.0535,25.79 17.2725,25.584 17.3,25.2635 C17.309,25.166 17.3,22.956 17.309,21.9495 C17.309,21.7135 17.58,21.7655 17.58,21.957 C17.58,22.0835 17.5845,28.141 17.5845,31.124 C17.5845,31.6495 17.829,31.956 18.247,31.965 C18.6885,31.974 18.9375,31.675 18.9385,31.118 C18.942,30.3365 18.945,26.7555 18.9465,26.117 C18.9465,25.9855 19.141,25.9845 19.141,26.117 C19.142,26.7555 19.145,30.3365 19.1485,31.118 C19.1495,31.675 19.399,31.974 19.8405,31.965 C20.258,31.956 20.503,31.6495 20.503,31.124 C20.503,28.141 20.5075,22.0835 20.5075,21.957 C20.5075,21.7655 20.779,21.714 20.779,21.9495 C20.787,22.956 20.779,25.166 20.787,25.2635 C20.815,25.584 21.034,25.79 21.336,25.79 C21.6345,25.789 21.8655,25.5795 21.8795,25.2585 C21.8965,24.866 21.887,21.8465 21.885,20.729 C21.8805,19.9275 21.4595,19.507 20.654,19.504 L20.654,19.504 Z" id="Shape"></path>
                    <path d="M20.1395,17.9445 C20.1435,17.333 19.657,16.841 19.048,16.8415 C18.439,16.842 17.9415,17.336 17.945,17.9375 C17.949,18.526 18.4335,19.0105 19.023,19.017 C19.65,19.024 20.1355,18.5565 20.1395,17.9445 L20.1395,17.9445 Z" id="Shape"></path>
                    <path d="M28.7405,19.504 C28.475,19.5035 25.7815,19.5035 25.516,19.504 C24.712,19.507 24.2905,19.928 24.2885,20.729 C24.285,21.846 24.277,24.8655 24.294,25.2585 C24.3065,25.58 24.5375,25.7895 24.8365,25.79 C25.139,25.79 25.3585,25.584 25.3855,25.2635 C25.394,25.166 25.3855,22.956 25.394,21.9495 C25.394,21.7135 25.666,21.7655 25.666,21.957 C25.666,22.0835 25.6705,28.141 25.6705,31.124 C25.6705,31.6495 25.915,31.956 26.333,31.965 C26.7745,31.974 27.0235,31.675 27.025,31.118 C27.027,30.3365 27.0315,26.7555 27.0325,26.117 C27.0325,25.9855 27.227,25.9845 27.227,26.117 C27.227,26.7555 27.2315,30.3365 27.2335,31.118 C27.236,31.675 27.484,31.974 27.9265,31.965 C28.3445,31.956 28.588,31.6495 28.588,31.124 C28.589,28.141 28.5935,22.0835 28.5935,21.957 C28.5935,21.7655 28.8645,21.714 28.8645,21.9495 C28.873,22.956 28.8645,25.166 28.873,25.2635 C28.901,25.584 29.119,25.79 29.422,25.79 C29.721,25.789 29.952,25.5795 29.9655,25.2585 C29.9825,24.866 29.9735,21.8465 29.971,20.729 C29.9665,19.9275 29.545,19.507 28.7405,19.504 L28.7405,19.504 Z" id="Shape"></path>
                    <path d="M27.135,16.8415 C26.526,16.842 26.0275,17.336 26.032,17.9375 C26.0365,18.526 26.521,19.0105 27.1105,19.017 C27.7355,19.024 28.221,18.5565 28.225,17.944 C28.2305,17.333 27.7425,16.841 27.135,16.8415 L27.135,16.8415 Z" id="Shape"></path>
                </g>
            </g>
        </g>
    </g>
</svg>