<?xml version="1.0" encoding="UTF-8" standalone="no"?>
<svg width="60px" height="80px" viewBox="0 0 60 80" version="1.1" xmlns="http://www.w3.org/2000/svg" xmlns:xlink="http://www.w3.org/1999/xlink" xmlns:sketch="http://www.bohemiancoding.com/sketch/ns">
    <!-- Generator: Sketch 3.0.4 (8054) - http://www.bohemiancoding.com/sketch -->
    <title>Policy Proposal Icon</title>
    <desc>Created with Sketch.</desc>
    <defs></defs>
    <g id="Page-1" stroke="none" stroke-width="1" fill="none" fill-rule="evenodd" sketch:type="MSPage">
        <g id="Landscape" sketch:type="MSArtboardGroup" transform="translate(-480.000000, -270.000000)">
            <g id="Policy-Proposal" sketch:type="MSLayerGroup" transform="translate(443.000000, 270.000000)">
                <g id="Policy-Proposal-Icon" transform="translate(37.000000, 0.000000)" sketch:type="MSShapeGroup">
                    <rect id="Rectangle-8" stroke="#E98300" stroke-width="2" x="0" y="0" width="60" height="80"></rect>
                    <path d="M14.1411434,23.6916548 C13.7058551,23.6916548 13.3529842,24.041301 13.3529842,24.481522 L13.3529842,33.4105767 C13.3529842,33.8468083 13.7028204,34.2004439 14.1411434,34.2004439 C14.5764317,34.2004439 14.9293026,33.8507976 14.9293026,33.4105767 L14.9293026,24.481522 C14.9293026,24.0452904 14.5794665,23.6916548 14.1411434,23.6916548 Z M37.5737105,24.2362938 C37.1384222,24.2362938 36.7855513,24.5859401 36.7855513,25.026161 L36.7855513,33.9552157 C36.7855513,34.3914473 37.1353874,34.7450829 37.5737105,34.7450829 C38.0089988,34.7450829 38.3618696,34.3954367 38.3618696,33.9552157 L38.3618696,25.026161 C38.3618696,24.5899294 38.0120335,24.2362938 37.5737105,24.2362938 Z M15.7174618,22.6407759 L15.7174618,36.3022017 L35.684161,36.3022017 L35.684161,22.6407759 L15.7174618,22.6407759 Z M25.7008114,36.3022017 C24.6851387,36.3022017 23.8617733,37.1205664 23.8617733,38.1509727 L23.8617733,62.3017217 C23.8617733,63.3227697 24.6780576,64.1504927 25.7008114,64.1504927 L25.7008114,64.1504927 C26.7164841,64.1504927 27.5398495,63.332128 27.5398495,62.3017217 L27.5398495,38.1509727 C27.5398495,37.1299247 26.7235652,36.3022017 25.7008114,36.3022017 L25.7008114,36.3022017 Z" id="Rectangle-26" fill="#E98300" transform="translate(25.852984, 43.191655) rotate(57.000000) translate(-25.852984, -43.191655) "></path>
                </g>
            </g>
        </g>
    </g>
</svg>